<?xml version="1.0" encoding="utf-8"?>
<svg width="48px" height="48px" viewBox="0 0 48 48" version="1.1" id="svg10" xmlns="http://www.w3.org/2000/svg">
  <title id="title2">70 Basic icons by Xicons.co</title>
  <path d="M 41 26 L 7 26 C 5.46 26 4.498 24.333 5.268 23 C 5.625 22.381 6.285 22 7 22 L 41 22 C 42.54 22 43.502 23.667 42.732 25 C 42.375 25.619 41.715 26 41 26 Z" id="path6" fill="#6f7380" transform="matrix(0.707107, 0.707106, -0.707106, 0.707107, 23.999983, -9.941125)"/>
  <path style="fill:#800080;stroke:none;stroke-width:0.0554913" d="M 6.674 25.941 C 6.064 25.838 5.519 25.424 5.235 24.845 C 5.072 24.514 5.052 24.424 5.052 24.001 C 5.052 23.577 5.072 23.487 5.235 23.156 C 5.53 22.555 6.058 22.166 6.725 22.057 C 7.167 21.984 40.838 21.984 41.281 22.057 C 41.947 22.166 42.475 22.555 42.77 23.156 C 42.934 23.488 42.953 23.576 42.952 23.999 C 42.951 24.393 42.926 24.525 42.802 24.791 C 42.52 25.399 41.943 25.836 41.281 25.944 C 40.882 26.01 7.063 26.006 6.674 25.941 Z" id="path71" transform="matrix(0.707107, 0.707106, -0.707106, 0.707107, 23.99842, -9.943443)"/>
  <g transform="matrix(0.707107, 0.707106, -0.707106, 0.707107, 23.854015, -10.08711)">
    <path style="fill:#800080;stroke:none;stroke-width:0.0554913" d="M 6.494 25.798 L 6.809 25.927 L 24.206 25.927 L 41.603 25.927 L 41.918 25.798 C 42.53 25.546 42.917 25.11 43.103 24.463 C 43.355 23.588 42.898 22.627 42.027 22.198 L 41.66 22.018 L 24.207 22.018 L 6.754 22.018 L 6.439 22.166 C 5.538 22.588 5.053 23.574 5.309 24.463 C 5.495 25.11 5.882 25.546 6.494 25.798 Z" id="path223" transform="matrix(0, 1, -1, 0, 48.17891, -0.233911)"/>
  </g>
</svg>